# xmcd
#
# Track frame offsets:
#	150
#	12283
#	48283
#	81083
#	105491
#	140626
#	170858
#	202131
#	212875
#
# Disc length: 3097 seconds
#
# Revision: 3
# Processed by: cddbd v1.5.1PL0 Copyright (c) Steve Scherf et al.
# Submitted via: EasyCDDAExtractor 5.1.0
#
DISCID=810c1709
DTITLE=Black Sabbath - Clarkston 12-06-97
DYEAR=1997
DGENRE=Hard Rock
TTITLE0=Sabbath Medley
TTITLE1=War Pigs
TTITLE2=Into The Void
TTITLE3=Sweet Leaf
TTITLE4=Iron Man
TTITLE5=Children of the Grave
TTITLE6=Black Sabbath
TTITLE7=Fairies Wear Boots 
TTITLE8=Sabbath Bloody Sabbath Intro - Paranoid
EXTD=
EXTT0=
EXTT1=
EXTT2=
EXTT3=
EXTT4=
EXTT5=
EXTT6=
EXTT7=
EXTT8=
PLAYORDER=
